<?xml version="1.0" encoding="UTF-8" standalone="no"?>
<!DOCTYPE svg PUBLIC "-//W3C//DTD SVG 1.1//EN"
 "http://www.w3.org/Graphics/SVG/1.1/DTD/svg11.dtd">
<!-- Generated by graphviz version 2.40.1 (20161225.0304)
 -->
<!-- Title: dependencies Pages: 1 -->
<svg width="3433pt" height="284pt"
 viewBox="0.00 0.00 3433.00 284.00" xmlns="http://www.w3.org/2000/svg" xmlns:xlink="http://www.w3.org/1999/xlink">
<g id="graph0" class="graph" transform="scale(1 1) rotate(0) translate(4 280)">
<title>dependencies</title>
<polygon fill="#ffffff" stroke="transparent" points="-4,4 -4,-280 3429,-280 3429,4 -4,4"/>
<text text-anchor="start" x="1691.5091" y="-42.4" font-family="sans-serif" font-weight="bold" font-size="14.00" fill="#000000">Legend</text>
<polygon fill="#ffffb3" stroke="transparent" points="1478.5,-10 1478.5,-30 1498.5,-30 1498.5,-10 1478.5,-10"/>
<text text-anchor="start" x="1502.129" y="-15.4" font-family="sans-serif" font-size="14.00" fill="#000000"> &#160;Declarations</text>
<polygon fill="#8dd3c7" stroke="transparent" points="1591.5,-10 1591.5,-30 1611.5,-30 1611.5,-10 1591.5,-10"/>
<text text-anchor="start" x="1615.2251" y="-15.4" font-family="sans-serif" font-size="14.00" fill="#000000"> &#160;Module</text>
<polygon fill="#80b1d3" stroke="transparent" points="1677.5,-10 1677.5,-30 1697.5,-30 1697.5,-10 1677.5,-10"/>
<text text-anchor="start" x="1701.2812" y="-15.4" font-family="sans-serif" font-size="14.00" fill="#000000"> &#160;Bootstrap</text>
<polygon fill="#fdb462" stroke="transparent" points="1774.5,-10 1774.5,-30 1794.5,-30 1794.5,-10 1774.5,-10"/>
<text text-anchor="start" x="1798.1732" y="-15.4" font-family="sans-serif" font-size="14.00" fill="#000000"> &#160;Providers</text>
<polygon fill="#fb8072" stroke="transparent" points="1870.5,-10 1870.5,-30 1890.5,-30 1890.5,-10 1870.5,-10"/>
<text text-anchor="start" x="1894.2258" y="-15.4" font-family="sans-serif" font-size="14.00" fill="#000000"> &#160;Exports</text>
<g id="clust1" class="cluster">
<title>cluster_AppModule</title>
<polygon fill="none" stroke="#000000" stroke-dasharray="1,5" points="8,-70 8,-268 3417,-268 3417,-70 8,-70"/>
</g>
<g id="clust2" class="cluster">
<title>cluster_AppModule_declarations</title>
<polygon fill="none" stroke="#000000" points="2254,-78 2254,-130 3409,-130 3409,-78 2254,-78"/>
</g>
<g id="clust11" class="cluster">
<title>cluster_AppModule_imports</title>
<polygon fill="none" stroke="#000000" points="635,-78 635,-130 2246,-130 2246,-78 635,-78"/>
</g>
<g id="clust12" class="cluster">
<title>cluster_AppModule_exports</title>
<polygon fill="none" stroke="#000000" points="1610,-208 1610,-260 1896,-260 1896,-208 1610,-208"/>
</g>
<g id="clust13" class="cluster">
<title>cluster_AppModule_bootstrap</title>
<polygon fill="none" stroke="#000000" points="1904,-208 1904,-260 2028,-260 2028,-208 1904,-208"/>
</g>
<g id="clust14" class="cluster">
<title>cluster_AppModule_providers</title>
<polygon fill="none" stroke="#000000" points="16,-78 16,-130 627,-130 627,-78 16,-78"/>
</g>
<!-- AppComponent -->
<g id="node1" class="node">
<title>AppComponent</title>
<polygon fill="#ffffb3" stroke="#000000" points="3400.9399,-122 3295.0601,-122 3295.0601,-86 3400.9399,-86 3400.9399,-122"/>
<text text-anchor="middle" x="3348" y="-99.8" font-family="Times,serif" font-size="14.00" fill="#000000">AppComponent</text>
</g>
<!-- AppModule -->
<g id="node9" class="node">
<title>AppModule</title>
<polygon fill="#8dd3c7" stroke="#000000" points="1861.6571,-187 1858.6571,-191 1837.6571,-191 1834.6571,-187 1778.3429,-187 1778.3429,-151 1861.6571,-151 1861.6571,-187"/>
<text text-anchor="middle" x="1820" y="-164.8" font-family="Times,serif" font-size="14.00" fill="#000000">AppModule</text>
</g>
<!-- AppComponent&#45;&gt;AppModule -->
<g id="edge1" class="edge">
<title>AppComponent&#45;&gt;AppModule</title>
<path fill="none" stroke="#000000" d="M3348,-122.2479C3348,-145.0179 3348,-181 3348,-181 3348,-181 1871.6628,-181 1871.6628,-181"/>
<polygon fill="#000000" stroke="#000000" points="1871.6628,-177.5001 1861.6628,-181 1871.6627,-184.5001 1871.6628,-177.5001"/>
</g>
<!-- LoginComponent -->
<g id="node2" class="node">
<title>LoginComponent</title>
<polygon fill="#ffffb3" stroke="#000000" points="3277.2758,-122 3162.7242,-122 3162.7242,-86 3277.2758,-86 3277.2758,-122"/>
<text text-anchor="middle" x="3220" y="-99.8" font-family="Times,serif" font-size="14.00" fill="#000000">LoginComponent</text>
</g>
<!-- LoginComponent&#45;&gt;AppModule -->
<g id="edge2" class="edge">
<title>LoginComponent&#45;&gt;AppModule</title>
<path fill="none" stroke="#000000" d="M3220,-122.2921C3220,-144.2057 3220,-178 3220,-178 3220,-178 1871.8992,-178 1871.8992,-178"/>
<polygon fill="#000000" stroke="#000000" points="1871.8993,-174.5001 1861.8992,-178 1871.8992,-181.5001 1871.8993,-174.5001"/>
</g>
<!-- HomeComponent -->
<g id="node3" class="node">
<title>HomeComponent</title>
<polygon fill="#ffffb3" stroke="#000000" points="3144.5451,-122 3029.4549,-122 3029.4549,-86 3144.5451,-86 3144.5451,-122"/>
<text text-anchor="middle" x="3087" y="-99.8" font-family="Times,serif" font-size="14.00" fill="#000000">HomeComponent</text>
</g>
<!-- HomeComponent&#45;&gt;AppModule -->
<g id="edge3" class="edge">
<title>HomeComponent&#45;&gt;AppModule</title>
<path fill="none" stroke="#000000" d="M3087,-122.2843C3087,-143.3211 3087,-175 3087,-175 3087,-175 1871.7945,-175 1871.7945,-175"/>
<polygon fill="#000000" stroke="#000000" points="1871.7945,-171.5001 1861.7945,-175 1871.7944,-178.5001 1871.7945,-171.5001"/>
</g>
<!-- NotfoundComponent -->
<g id="node4" class="node">
<title>NotfoundComponent</title>
<polygon fill="#ffffb3" stroke="#000000" points="3011.4902,-122 2876.5098,-122 2876.5098,-86 3011.4902,-86 3011.4902,-122"/>
<text text-anchor="middle" x="2944" y="-99.8" font-family="Times,serif" font-size="14.00" fill="#000000">NotfoundComponent</text>
</g>
<!-- NotfoundComponent&#45;&gt;AppModule -->
<g id="edge4" class="edge">
<title>NotfoundComponent&#45;&gt;AppModule</title>
<path fill="none" stroke="#000000" d="M2944,-122.2228C2944,-142.3652 2944,-172 2944,-172 2944,-172 1871.6731,-172 1871.6731,-172"/>
<polygon fill="#000000" stroke="#000000" points="1871.6732,-168.5001 1861.6731,-172 1871.6731,-175.5001 1871.6732,-168.5001"/>
</g>
<!-- QuizComponent -->
<g id="node5" class="node">
<title>QuizComponent</title>
<polygon fill="#ffffb3" stroke="#000000" points="2858.0452,-122 2749.9548,-122 2749.9548,-86 2858.0452,-86 2858.0452,-122"/>
<text text-anchor="middle" x="2804" y="-99.8" font-family="Times,serif" font-size="14.00" fill="#000000">QuizComponent</text>
</g>
<!-- QuizComponent&#45;&gt;AppModule -->
<g id="edge5" class="edge">
<title>QuizComponent&#45;&gt;AppModule</title>
<path fill="none" stroke="#000000" d="M2804,-122.1061C2804,-141.3391 2804,-169 2804,-169 2804,-169 1871.9665,-169 1871.9665,-169"/>
<polygon fill="#000000" stroke="#000000" points="1871.9665,-165.5001 1861.9665,-169 1871.9664,-172.5001 1871.9665,-165.5001"/>
</g>
<!-- RegisterComponent -->
<g id="node6" class="node">
<title>RegisterComponent</title>
<polygon fill="#ffffb3" stroke="#000000" points="2731.9846,-122 2604.0154,-122 2604.0154,-86 2731.9846,-86 2731.9846,-122"/>
<text text-anchor="middle" x="2668" y="-99.8" font-family="Times,serif" font-size="14.00" fill="#000000">RegisterComponent</text>
</g>
<!-- RegisterComponent&#45;&gt;AppModule -->
<g id="edge6" class="edge">
<title>RegisterComponent&#45;&gt;AppModule</title>
<path fill="none" stroke="#000000" d="M2668,-122.2667C2668,-140.5552 2668,-166 2668,-166 2668,-166 1871.7632,-166 1871.7632,-166"/>
<polygon fill="#000000" stroke="#000000" points="1871.7632,-162.5001 1861.7632,-166 1871.7632,-169.5001 1871.7632,-162.5001"/>
</g>
<!-- ScoreboardComponent -->
<g id="node7" class="node">
<title>ScoreboardComponent</title>
<polygon fill="#ffffb3" stroke="#000000" points="2585.58,-122 2440.42,-122 2440.42,-86 2585.58,-86 2585.58,-122"/>
<text text-anchor="middle" x="2513" y="-99.8" font-family="Times,serif" font-size="14.00" fill="#000000">ScoreboardComponent</text>
</g>
<!-- ScoreboardComponent&#45;&gt;AppModule -->
<g id="edge7" class="edge">
<title>ScoreboardComponent&#45;&gt;AppModule</title>
<path fill="none" stroke="#000000" d="M2513,-122.0225C2513,-139.3734 2513,-163 2513,-163 2513,-163 1871.7896,-163 1871.7896,-163"/>
<polygon fill="#000000" stroke="#000000" points="1871.7897,-159.5001 1861.7896,-163 1871.7896,-166.5001 1871.7897,-159.5001"/>
</g>
<!-- QuostionnaireComponent -->
<g id="node8" class="node">
<title>QuostionnaireComponent</title>
<polygon fill="#ffffb3" stroke="#000000" points="2422.1456,-122 2261.8544,-122 2261.8544,-86 2422.1456,-86 2422.1456,-122"/>
<text text-anchor="middle" x="2342" y="-99.8" font-family="Times,serif" font-size="14.00" fill="#000000">QuostionnaireComponent</text>
</g>
<!-- QuostionnaireComponent&#45;&gt;AppModule -->
<g id="edge8" class="edge">
<title>QuostionnaireComponent&#45;&gt;AppModule</title>
<path fill="none" stroke="#000000" d="M2342,-122.027C2342,-138.3976 2342,-160 2342,-160 2342,-160 1871.8351,-160 1871.8351,-160"/>
<polygon fill="#000000" stroke="#000000" points="1871.8351,-156.5001 1861.8351,-160 1871.835,-163.5001 1871.8351,-156.5001"/>
</g>
<!-- NgDragDropModule  -->
<g id="node20" class="node">
<title>NgDragDropModule </title>
<polygon fill="#fb8072" stroke="#000000" points="1888.4054,-252 1751.5946,-252 1751.5946,-216 1888.4054,-216 1888.4054,-252"/>
<text text-anchor="middle" x="1820" y="-229.8" font-family="Times,serif" font-size="14.00" fill="#000000">NgDragDropModule </text>
</g>
<!-- AppModule&#45;&gt;NgDragDropModule  -->
<g id="edge19" class="edge">
<title>AppModule&#45;&gt;NgDragDropModule </title>
<path fill="none" stroke="#000000" stroke-dasharray="5,2" d="M1820,-187.1061C1820,-187.1061 1820,-205.991 1820,-205.991"/>
<polygon fill="#000000" stroke="#000000" points="1816.5001,-205.9909 1820,-215.991 1823.5001,-205.991 1816.5001,-205.9909"/>
</g>
<!-- CommonModule  -->
<g id="node21" class="node">
<title>CommonModule </title>
<polygon fill="#fb8072" stroke="#000000" points="1733.6677,-252 1618.3323,-252 1618.3323,-216 1733.6677,-216 1733.6677,-252"/>
<text text-anchor="middle" x="1676" y="-229.8" font-family="Times,serif" font-size="14.00" fill="#000000">CommonModule </text>
</g>
<!-- AppModule&#45;&gt;CommonModule  -->
<g id="edge20" class="edge">
<title>AppModule&#45;&gt;CommonModule </title>
<path fill="none" stroke="#000000" stroke-dasharray="5,2" d="M1778.1978,-184C1745.9727,-184 1706.875,-184 1706.875,-184 1706.875,-184 1706.875,-205.9489 1706.875,-205.9489"/>
<polygon fill="#000000" stroke="#000000" points="1703.3751,-205.9488 1706.875,-215.9489 1710.3751,-205.9489 1703.3751,-205.9488"/>
</g>
<!-- AppComponent  -->
<g id="node22" class="node">
<title>AppComponent </title>
<polygon fill="#80b1d3" stroke="#000000" points="2020.439,-252 1911.561,-252 1911.561,-216 2020.439,-216 2020.439,-252"/>
<text text-anchor="middle" x="1966" y="-229.8" font-family="Times,serif" font-size="14.00" fill="#000000">AppComponent </text>
</g>
<!-- AppModule&#45;&gt;AppComponent  -->
<g id="edge21" class="edge">
<title>AppModule&#45;&gt;AppComponent </title>
<path fill="none" stroke="#000000" stroke-dasharray="1,5" d="M1861.8245,-184C1901.6991,-184 1955.709,-184 1955.709,-184 1955.709,-184 1955.709,-205.9489 1955.709,-205.9489"/>
<polygon fill="#000000" stroke="#000000" points="1952.2091,-205.9488 1955.709,-215.9489 1959.2091,-205.9489 1952.2091,-205.9488"/>
</g>
<!-- BrowserModule -->
<g id="node10" class="node">
<title>BrowserModule</title>
<polygon fill="#8dd3c7" stroke="#000000" points="2238.4734,-122 2235.4734,-126 2214.4734,-126 2211.4734,-122 2131.5266,-122 2131.5266,-86 2238.4734,-86 2238.4734,-122"/>
<text text-anchor="middle" x="2185" y="-99.8" font-family="Times,serif" font-size="14.00" fill="#000000">BrowserModule</text>
</g>
<!-- BrowserModule&#45;&gt;AppModule -->
<g id="edge9" class="edge">
<title>BrowserModule&#45;&gt;AppModule</title>
<path fill="none" stroke="#000000" d="M2185,-122.2396C2185,-137.5706 2185,-157 2185,-157 2185,-157 1871.8701,-157 1871.8701,-157"/>
<polygon fill="#000000" stroke="#000000" points="1871.8702,-153.5001 1861.8701,-157 1871.8701,-160.5001 1871.8702,-153.5001"/>
</g>
<!-- FormsModule -->
<g id="node11" class="node">
<title>FormsModule</title>
<polygon fill="#8dd3c7" stroke="#000000" points="2113.8288,-122 2110.8288,-126 2089.8288,-126 2086.8288,-122 2018.1712,-122 2018.1712,-86 2113.8288,-86 2113.8288,-122"/>
<text text-anchor="middle" x="2066" y="-99.8" font-family="Times,serif" font-size="14.00" fill="#000000">FormsModule</text>
</g>
<!-- FormsModule&#45;&gt;AppModule -->
<g id="edge10" class="edge">
<title>FormsModule&#45;&gt;AppModule</title>
<path fill="none" stroke="#000000" d="M2067.0668,-122.0511C2067.0668,-136.373 2067.0668,-154 2067.0668,-154 2067.0668,-154 1871.9115,-154 1871.9115,-154"/>
<polygon fill="#000000" stroke="#000000" points="1871.9115,-150.5001 1861.9115,-154 1871.9115,-157.5001 1871.9115,-150.5001"/>
</g>
<!-- NgDragDropModule.forRoot() -->
<g id="node12" class="node">
<title>NgDragDropModule.forRoot()</title>
<polygon fill="#8dd3c7" stroke="#000000" points="1999.7751,-122 1996.7751,-126 1975.7751,-126 1972.7751,-122 1810.2249,-122 1810.2249,-86 1999.7751,-86 1999.7751,-122"/>
<text text-anchor="middle" x="1905" y="-99.8" font-family="Times,serif" font-size="14.00" fill="#000000">NgDragDropModule.forRoot()</text>
</g>
<!-- NgDragDropModule.forRoot()&#45;&gt;AppModule -->
<g id="edge11" class="edge">
<title>NgDragDropModule.forRoot()&#45;&gt;AppModule</title>
<path fill="none" stroke="#000000" d="M1835.9704,-122.1061C1835.9704,-122.1061 1835.9704,-140.991 1835.9704,-140.991"/>
<polygon fill="#000000" stroke="#000000" points="1832.4704,-140.9909 1835.9704,-150.991 1839.4704,-140.991 1832.4704,-140.9909"/>
</g>
<!-- CommonModule -->
<g id="node13" class="node">
<title>CommonModule</title>
<polygon fill="#8dd3c7" stroke="#000000" points="1791.6681,-122 1788.6681,-126 1767.6681,-126 1764.6681,-122 1680.3319,-122 1680.3319,-86 1791.6681,-86 1791.6681,-122"/>
<text text-anchor="middle" x="1736" y="-99.8" font-family="Times,serif" font-size="14.00" fill="#000000">CommonModule</text>
</g>
<!-- CommonModule&#45;&gt;AppModule -->
<g id="edge12" class="edge">
<title>CommonModule&#45;&gt;AppModule</title>
<path fill="none" stroke="#000000" d="M1785.0028,-122.1061C1785.0028,-122.1061 1785.0028,-140.991 1785.0028,-140.991"/>
<polygon fill="#000000" stroke="#000000" points="1781.5029,-140.9909 1785.0028,-150.991 1788.5029,-140.991 1781.5029,-140.9909"/>
</g>
<!-- ReactiveFormsModule -->
<g id="node14" class="node">
<title>ReactiveFormsModule</title>
<polygon fill="#8dd3c7" stroke="#000000" points="1662.3047,-122 1659.3047,-126 1638.3047,-126 1635.3047,-122 1517.6953,-122 1517.6953,-86 1662.3047,-86 1662.3047,-122"/>
<text text-anchor="middle" x="1590" y="-99.8" font-family="Times,serif" font-size="14.00" fill="#000000">ReactiveFormsModule</text>
</g>
<!-- ReactiveFormsModule&#45;&gt;AppModule -->
<g id="edge13" class="edge">
<title>ReactiveFormsModule&#45;&gt;AppModule</title>
<path fill="none" stroke="#000000" d="M1640.2842,-122.0511C1640.2842,-136.373 1640.2842,-154 1640.2842,-154 1640.2842,-154 1768.3179,-154 1768.3179,-154"/>
<polygon fill="#000000" stroke="#000000" points="1768.3179,-157.5001 1778.3179,-154 1768.3178,-150.5001 1768.3179,-157.5001"/>
</g>
<!-- routing -->
<g id="node15" class="node">
<title>routing</title>
<polygon fill="#8dd3c7" stroke="#000000" points="1500.4435,-122 1497.4435,-126 1476.4435,-126 1473.4435,-122 1443.5565,-122 1443.5565,-86 1500.4435,-86 1500.4435,-122"/>
<text text-anchor="middle" x="1472" y="-99.8" font-family="Times,serif" font-size="14.00" fill="#000000">routing</text>
</g>
<!-- routing&#45;&gt;AppModule -->
<g id="edge14" class="edge">
<title>routing&#45;&gt;AppModule</title>
<path fill="none" stroke="#000000" d="M1472,-122.2396C1472,-137.5706 1472,-157 1472,-157 1472,-157 1768.0231,-157 1768.0231,-157"/>
<polygon fill="#000000" stroke="#000000" points="1768.0231,-160.5001 1778.0231,-157 1768.023,-153.5001 1768.0231,-160.5001"/>
</g>
<!-- AngularFireModule.initializeApp(args) -->
<g id="node16" class="node">
<title>AngularFireModule.initializeApp(args)</title>
<polygon fill="#8dd3c7" stroke="#000000" points="1425.7057,-122 1422.7057,-126 1401.7057,-126 1398.7057,-122 1188.2943,-122 1188.2943,-86 1425.7057,-86 1425.7057,-122"/>
<text text-anchor="middle" x="1307" y="-99.8" font-family="Times,serif" font-size="14.00" fill="#000000">AngularFireModule.initializeApp(args)</text>
</g>
<!-- AngularFireModule.initializeApp(args)&#45;&gt;AppModule -->
<g id="edge15" class="edge">
<title>AngularFireModule.initializeApp(args)&#45;&gt;AppModule</title>
<path fill="none" stroke="#000000" d="M1307,-122.027C1307,-138.3976 1307,-160 1307,-160 1307,-160 1768.0191,-160 1768.0191,-160"/>
<polygon fill="#000000" stroke="#000000" points="1768.0191,-163.5001 1778.0191,-160 1768.019,-156.5001 1768.0191,-163.5001"/>
</g>
<!-- AngularFirestoreModule -->
<g id="node17" class="node">
<title>AngularFirestoreModule</title>
<polygon fill="#8dd3c7" stroke="#000000" points="1170.6811,-122 1167.6811,-126 1146.6811,-126 1143.6811,-122 1015.3189,-122 1015.3189,-86 1170.6811,-86 1170.6811,-122"/>
<text text-anchor="middle" x="1093" y="-99.8" font-family="Times,serif" font-size="14.00" fill="#000000">AngularFirestoreModule</text>
</g>
<!-- AngularFirestoreModule&#45;&gt;AppModule -->
<g id="edge16" class="edge">
<title>AngularFirestoreModule&#45;&gt;AppModule</title>
<path fill="none" stroke="#000000" d="M1093,-122.0225C1093,-139.3734 1093,-163 1093,-163 1093,-163 1768.3022,-163 1768.3022,-163"/>
<polygon fill="#000000" stroke="#000000" points="1768.3022,-166.5001 1778.3022,-163 1768.3021,-159.5001 1768.3022,-166.5001"/>
</g>
<!-- AngularFireAuthModule -->
<g id="node18" class="node">
<title>AngularFireAuthModule</title>
<polygon fill="#8dd3c7" stroke="#000000" points="996.9678,-122 993.9678,-126 972.9678,-126 969.9678,-122 841.0322,-122 841.0322,-86 996.9678,-86 996.9678,-122"/>
<text text-anchor="middle" x="919" y="-99.8" font-family="Times,serif" font-size="14.00" fill="#000000">AngularFireAuthModule</text>
</g>
<!-- AngularFireAuthModule&#45;&gt;AppModule -->
<g id="edge17" class="edge">
<title>AngularFireAuthModule&#45;&gt;AppModule</title>
<path fill="none" stroke="#000000" d="M919,-122.2667C919,-140.5552 919,-166 919,-166 919,-166 1768.0511,-166 1768.0511,-166"/>
<polygon fill="#000000" stroke="#000000" points="1768.0512,-169.5001 1778.0511,-166 1768.0511,-162.5001 1768.0512,-169.5001"/>
</g>
<!-- AngularFireDatabaseModule -->
<g id="node19" class="node">
<title>AngularFireDatabaseModule</title>
<polygon fill="#8dd3c7" stroke="#000000" points="822.771,-122 819.771,-126 798.771,-126 795.771,-122 643.229,-122 643.229,-86 822.771,-86 822.771,-122"/>
<text text-anchor="middle" x="733" y="-99.8" font-family="Times,serif" font-size="14.00" fill="#000000">AngularFireDatabaseModule</text>
</g>
<!-- AngularFireDatabaseModule&#45;&gt;AppModule -->
<g id="edge18" class="edge">
<title>AngularFireDatabaseModule&#45;&gt;AppModule</title>
<path fill="none" stroke="#000000" d="M733,-122.1061C733,-141.3391 733,-169 733,-169 733,-169 1768.0544,-169 1768.0544,-169"/>
<polygon fill="#000000" stroke="#000000" points="1768.0544,-172.5001 1778.0544,-169 1768.0543,-165.5001 1768.0544,-172.5001"/>
</g>
<!-- LoginService -->
<g id="node23" class="node">
<title>LoginService</title>
<ellipse fill="#fdb462" stroke="#000000" cx="556" cy="-104" rx="63.1209" ry="18"/>
<text text-anchor="middle" x="556" y="-99.8" font-family="Times,serif" font-size="14.00" fill="#000000">LoginService</text>
</g>
<!-- LoginService&#45;&gt;AppModule -->
<g id="edge22" class="edge">
<title>LoginService&#45;&gt;AppModule</title>
<path fill="none" stroke="#000000" d="M556,-122.2228C556,-142.3652 556,-172 556,-172 556,-172 1768.3045,-172 1768.3045,-172"/>
<polygon fill="#000000" stroke="#000000" points="1768.3045,-175.5001 1778.3045,-172 1768.3044,-168.5001 1768.3045,-175.5001"/>
</g>
<!-- AuthService -->
<g id="node24" class="node">
<title>AuthService</title>
<ellipse fill="#fdb462" stroke="#000000" cx="416" cy="-104" rx="59.1083" ry="18"/>
<text text-anchor="middle" x="416" y="-99.8" font-family="Times,serif" font-size="14.00" fill="#000000">AuthService</text>
</g>
<!-- AuthService&#45;&gt;AppModule -->
<g id="edge23" class="edge">
<title>AuthService&#45;&gt;AppModule</title>
<path fill="none" stroke="#000000" d="M416,-122.2843C416,-143.3211 416,-175 416,-175 416,-175 1767.9811,-175 1767.9811,-175"/>
<polygon fill="#000000" stroke="#000000" points="1767.9811,-178.5001 1777.9811,-175 1767.981,-171.5001 1767.9811,-178.5001"/>
</g>
<!-- QuestionnaireService -->
<g id="node25" class="node">
<title>QuestionnaireService</title>
<ellipse fill="#fdb462" stroke="#000000" cx="245" cy="-104" rx="94.3176" ry="18"/>
<text text-anchor="middle" x="245" y="-99.8" font-family="Times,serif" font-size="14.00" fill="#000000">QuestionnaireService</text>
</g>
<!-- QuestionnaireService&#45;&gt;AppModule -->
<g id="edge24" class="edge">
<title>QuestionnaireService&#45;&gt;AppModule</title>
<path fill="none" stroke="#000000" d="M245,-122.2921C245,-144.2057 245,-178 245,-178 245,-178 1768.2783,-178 1768.2783,-178"/>
<polygon fill="#000000" stroke="#000000" points="1768.2783,-181.5001 1778.2783,-178 1768.2782,-174.5001 1768.2783,-181.5001"/>
</g>
<!-- AuthGuard -->
<g id="node26" class="node">
<title>AuthGuard</title>
<ellipse fill="#fdb462" stroke="#000000" cx="78" cy="-104" rx="54.4566" ry="18"/>
<text text-anchor="middle" x="78" y="-99.8" font-family="Times,serif" font-size="14.00" fill="#000000">AuthGuard</text>
</g>
<!-- AuthGuard&#45;&gt;AppModule -->
<g id="edge25" class="edge">
<title>AuthGuard&#45;&gt;AppModule</title>
<path fill="none" stroke="#000000" d="M78,-122.2479C78,-145.0179 78,-181 78,-181 78,-181 1768.2308,-181 1768.2308,-181"/>
<polygon fill="#000000" stroke="#000000" points="1768.2308,-184.5001 1778.2308,-181 1768.2307,-177.5001 1768.2308,-184.5001"/>
</g>
</g>
</svg>
